<svg width="60" height="98" viewBox="0 0 60 98" fill="none" xmlns="http://www.w3.org/2000/svg">
<path d="M32.9289 0.651268C33.2908 0.996071 33.5804 1.80061 33.5804 2.49021C33.5804 3.17981 33.9062 4.1759 34.3044 4.71226C35.3179 6.09146 35.2455 7.85378 34.1234 8.65831C32.7479 9.61609 32.9651 10.5739 34.5939 10.9187C36.9106 11.3784 39.5529 13.3323 38.8652 14.0602C38.7566 14.1751 37.8517 14.0602 36.8382 13.8303C34.4853 13.294 29.6349 13.294 26.9201 13.8303C25.7618 14.0602 24.7121 14.0985 24.6035 13.9836C24.0606 13.4089 26.703 11.5316 28.6576 11.0719C29.7797 10.8037 30.6846 10.4206 30.6846 10.1908C30.6846 9.92258 30.2141 9.3096 29.5987 8.73493C28.3318 7.54729 28.187 6.28302 29.2368 4.8655C29.6349 4.32915 29.9607 3.33305 29.9607 2.64346C29.9607 1.30256 30.8294 -1.52588e-05 31.6982 -1.52588e-05C32.0239 -1.52588e-05 32.5669 0.268158 32.9289 0.651268ZM40.3855 16.8569C43.6432 17.8147 46.1408 19.1173 47.8783 20.7263C50.0139 22.7185 50.0863 23.1399 48.8556 25.7834C45.3807 33.2541 44.5843 44.939 47.1181 50.8006L48.0231 52.8694L46.4666 51.9116C39.9511 47.8507 29.092 47.1227 20.6942 50.1876C19.5721 50.6091 18.5586 50.9539 18.4862 50.9539C18.4138 50.9539 18.7758 50.3026 19.2464 49.498C19.7169 48.6935 20.4771 46.8162 20.9476 45.3604C22.0335 41.7592 22.3231 32.9476 21.4906 28.7334C21.1648 27.1243 21.0562 25.7451 21.2372 25.5535C21.8526 24.9023 26.8478 23.7529 30.1055 23.523C34.0148 23.2549 38.3946 23.9828 41.2904 25.4003L43.2089 26.3198L42.7383 29.7295C42.1953 33.2924 42.3401 40.1884 42.9555 42.3338C43.2089 43.215 43.2812 42.717 43.3174 39.9202C43.3536 36.319 44.2948 30.3041 45.3445 27.2009C45.8874 25.5535 45.8874 25.4769 45.0911 24.8256C40.6751 21.1861 31.5534 19.9601 24.0244 21.9906C22.0335 22.527 20.3323 22.8718 20.2237 22.7568C20.1151 22.6419 19.7531 21.7607 19.3911 20.7646C18.7758 19.079 18.7758 18.9257 19.3188 18.5043C20.1151 17.8913 22.7213 16.9718 25.6532 16.2822C29.0196 15.4777 36.8744 15.7842 40.3855 16.8569ZM16.061 19.7302C16.5678 20.075 17.1469 21.3776 17.7623 23.4464C19.2826 28.6184 19.6083 30.9554 19.6083 36.2041C19.6083 41.6826 19.1016 44.441 17.4003 48.1571C16.423 50.2643 12.9481 54.2869 10.6314 56.0492C9.61793 56.8155 9.65412 56.7389 11.0296 54.7467C12.9481 52.0649 13.853 50.111 14.5407 47.2377C15.3733 43.7897 15.3009 43.0618 14.0702 42.602L13.0205 42.2189L12.6223 44.939C12.3689 46.4715 11.7898 48.7318 11.3192 49.9961L10.4505 52.2948L10.4143 49.2299C10.3781 45.552 9.61792 40.7248 8.82159 39.1923C5.99821 33.7905 5.88962 33.369 5.88962 28.9249C5.88962 25.6685 6.03441 24.3659 6.54117 23.1783L7.22892 21.6458L8.06145 23.4081C8.78539 24.9023 8.85779 25.362 8.56821 26.8178C7.59089 31.4535 10.4505 38.0813 14.034 39.3839L15.1923 39.8436L14.9389 38.043C14.6131 35.6677 12.9843 30.8788 10.5952 25.2087C9.47314 22.6036 8.7492 20.3815 8.93018 20.19C10.1971 18.8491 14.3597 18.5809 16.061 19.7302ZM51.8238 27.6223C52.3667 28.0821 53.1993 29.2697 53.6698 30.3041C54.8281 32.6794 54.9367 36.8937 53.887 39.3456C52.6925 42.0657 49.2176 45.5903 47.6611 45.5903C46.9734 45.5903 47.4801 36.0508 48.3488 32.5262C49.2176 29.0399 50.0863 26.8178 50.5207 26.8178C50.7017 26.8178 51.2808 27.1626 51.8238 27.6223ZM30.2503 51.5668C31.0104 52.1415 31.0466 52.3714 31.0466 58.6544V65.129H29.8883C29.2368 65.129 28.368 65.2439 27.9337 65.3589C27.3183 65.5504 27.0649 65.2822 26.4496 63.7115C24.8207 59.6888 24.314 53.1376 25.5447 52.0266C26.8116 50.8389 28.9834 50.6091 30.2503 51.5668ZM38.0327 52.0649C38.6842 52.7545 38.7928 53.2525 38.7204 55.5512C38.648 58.731 38.1775 61.1446 37.1277 63.6732C36.4762 65.2439 36.2228 65.5504 35.6075 65.3589C35.1731 65.2439 34.3044 65.129 33.689 65.129H32.4945V58.8077C32.4945 52.8694 32.5307 52.448 33.2546 51.6818C33.87 51.0305 34.3406 50.9156 35.6437 51.0688C36.621 51.1837 37.5983 51.5668 38.0327 52.0649ZM22.3955 53.2525C22.9385 53.559 23.0833 54.0954 23.0833 55.4746C23.0833 57.8499 23.952 61.9875 24.8569 64.1712L25.5809 65.9335L24.6397 66.3166C23.4452 66.7764 22.4317 66.1251 20.7304 63.6732C18.5948 60.6083 17.5089 56.6239 18.2328 54.5934C18.4862 53.9421 20.2599 52.9077 21.201 52.8694C21.4544 52.8694 21.9973 53.061 22.3955 53.2525ZM43.8966 53.4058C44.7291 53.7889 45.2359 54.3252 45.3807 54.9765C45.996 57.5817 44.4034 62.0641 41.8334 64.8991C40.0959 66.8147 39.8425 66.9296 38.9014 66.1634C38.3222 65.742 38.3584 65.5121 39.191 62.9453C39.7339 61.2979 40.2045 58.846 40.3131 57.007C40.6027 52.8694 41.218 52.2564 43.8966 53.4058ZM54.1404 61.6044C55.4797 64.516 55.4797 64.631 55.4797 69.3432C55.4797 73.3659 55.3349 74.5536 54.6471 76.699C54.1766 78.1548 53.6698 79.3041 53.5612 79.3041C53.4164 79.3041 52.9097 78.6912 52.4391 77.9632C51.6428 76.7373 51.4256 76.6224 49.7967 76.6224H47.9869L49.0366 75.1665C51.7514 71.4887 52.7649 68.3855 52.7649 64.018C52.7287 61.3745 52.4753 60.1869 51.136 56.509C50.5207 54.8233 52.9097 58.846 54.1404 61.6044ZM16.9297 59.4589C17.6899 62.0258 18.7758 63.9797 20.6942 66.2017C21.8164 67.466 22.0335 67.9257 21.6716 68.3088C21.3458 68.6536 20.7304 68.4621 18.9206 67.466C15.0113 65.3206 12.9481 62.1024 13.672 59.344C14.5045 56.2791 16.0248 56.3174 16.9297 59.4589ZM49.6519 58.731C50.5931 60.7998 50.1949 62.4855 48.2402 64.7076C46.358 66.8147 42.4849 68.9601 41.8334 68.2705C41.5076 67.9257 41.8334 67.3894 43.0641 65.9718C44.8739 63.903 46.2856 61.2596 46.9734 58.6927C47.2991 57.3135 47.5163 57.0453 48.1679 57.1603C48.6746 57.2369 49.2176 57.8116 49.6519 58.731ZM5.45526 62.3323C3.13864 67.3127 3.03005 72.3698 5.02089 78.6529C6.25159 82.5606 7.59089 85.2424 9.72652 88.1157L11.1382 90.0313H9.00257C6.86694 90.0313 6.83075 90.0313 5.67244 91.7553C5.02089 92.7131 4.44174 93.4793 4.36934 93.4793C4.00737 93.4793 2.01653 88.3456 1.184 85.2424C-0.698254 78.2697 -0.336283 71.6419 2.26991 66.0485C3.24723 63.9414 6.1068 59.7654 6.57737 59.7654C6.61356 59.7654 6.1068 60.9148 5.45526 62.3323ZM8.38722 69.7263C9.21976 72.1016 10.6314 74.5919 12.2965 76.4691L13.672 78.0782L12.0431 78.3081C10.8124 78.5379 10.1971 78.8827 9.36455 79.9554L8.31483 81.2963L7.59089 79.2275C5.96202 74.6302 5.60004 67.6959 6.83075 64.9374L7.33751 63.8264L7.55469 65.8952C7.69948 67.0446 8.06145 68.7686 8.38722 69.7263ZM59.2442 71.9867C60.5111 77.6951 60.1853 82.982 58.2669 87.6943L57.6153 89.4183L56.7828 87.8475C56.0226 86.43 55.7693 86.2768 54.1404 86.0469L52.3667 85.7787L53.5974 84.1697C56.2036 80.8366 58.1945 74.86 58.1945 70.6075C58.1945 69.4965 58.2669 68.577 58.3393 68.577C58.4116 68.577 58.846 70.1095 59.2442 71.9867ZM39.8063 71.2205C42.6297 72.1783 44.4396 73.749 44.4396 75.2815C44.4396 76.2392 44.331 76.3159 43.4622 76.0477C38.8652 74.8217 36.9829 74.5919 31.7706 74.5919C26.5582 74.5919 24.6759 74.8217 20.1151 76.0477C19.2102 76.3159 19.1016 76.2392 19.1016 75.2815C19.1016 73.251 22.0335 71.3737 26.6306 70.4926C29.5987 69.9179 37.0915 70.3393 39.8063 71.2205ZM41.1818 77.9632C42.6659 78.3464 44.5481 78.9593 45.3807 79.3041C46.8648 79.9937 46.8648 79.9937 47.1543 82.5989C47.3715 84.9359 47.8783 87.1962 48.6022 88.9586C48.8194 89.5332 48.6746 89.5332 47.0457 88.8819C43.2812 87.3495 39.191 86.8131 31.7706 86.8131C24.3502 86.8131 20.1875 87.3878 16.4954 88.8819C14.8665 89.5332 14.7217 89.5332 14.9389 88.9586C15.6628 87.1579 16.2058 84.706 16.423 82.484C16.6764 79.9937 16.6764 79.9937 18.1966 79.3041C19.4997 78.7295 22.7213 77.8483 25.979 77.2353C28.2232 76.8139 38.5756 77.312 41.1818 77.9632ZM39.01 89.6482C44.9101 90.4144 50.0863 92.2916 51.136 94.0156C51.3894 94.4754 51.7152 95.5481 51.86 96.4292L52.0771 98L49.9415 97.0805C41.3628 93.441 22.1783 93.441 13.5996 97.0805L11.464 98L11.6812 96.4292C12.0793 93.9773 12.4413 93.5176 14.8665 92.2916C17.4727 91.0274 20.4409 90.1845 23.9882 89.6865C27.6079 89.2267 35.4265 89.1884 39.01 89.6482Z" fill="white"/>
</svg>
